/videos/0fdb2f2e-0bea-5e99-9d89-0c03d20296af/hls1/main/0.ts

{"Protocol":0,"Id":"0fdb2f2e0bea5e999d890c03d20296af","Path":"/data/tvshows/Hunter x Hunter (2011)/Season 2/Hunter x Hunter (2011) - S02E25 - Inspiration x To x Evolve Bluray-720p.mkv","EncoderPath":null,"EncoderProtocol":null,"Type":0,"Container":"mkv,webm","Size":491443650,"Name":"Hunter x Hunter (2011) - S02E25 - Inspiration x To x Evolve Bluray-720p","IsRemote":false,"ETag":"4a4787b9977ea8ffa0e5aaa69fb1b532","RunTimeTicks":14164179999,"ReadAtNativeFramerate":false,"IgnoreDts":false,"IgnoreIndex":false,"GenPtsInput":false,"SupportsTranscoding":true,"SupportsDirectStream":true,"SupportsDirectPlay":true,"IsInfiniteStream":false,"RequiresOpening":false,"OpenToken":null,"RequiresClosing":false,"LiveStreamId":null,"BufferMs":null,"RequiresLooping":false,"SupportsProbing":true,"VideoType":0,"IsoType":null,"Video3DFormat":null,"MediaStreams":[{"Codec":"h264","CodecTag":null,"Language":"jpn","ColorRange":null,"ColorSpace":null,"ColorTransfer":null,"ColorPrimaries":null,"DvVersionMajor":null,"DvVersionMinor":null,"DvProfile":null,"DvLevel":null,"RpuPresentFlag":null,"ElPresentFlag":null,"BlPresentFlag":null,"DvBlSignalCompatibilityId":null,"Comment":null,"TimeBase":"1/1000","CodecTimeBase":null,"Title":"Hunter x Hunter 083: Ispirazione x Ed x Evoluzione","VideoRange":"SDR","VideoRangeType":"SDR","VideoDoViTitle":null,"LocalizedUndefined":null,"LocalizedDefault":null,"LocalizedForced":null,"LocalizedExternal":null,"DisplayTitle":"Hunter x Hunter 083: Ispirazione x Ed x Evoluzione - 720p - H264 - SDR","NalLengthSize":"4","IsInterlaced":false,"IsAVC":true,"ChannelLayout":null,"BitRate":2775698,"BitDepth":10,"RefFrames":1,"PacketLength":null,"Channels":null,"SampleRate":null,"IsDefault":true,"IsForced":false,"Height":720,"Width":1280,"AverageFrameRate":23.976025,"RealFrameRate":23.976025,"Profile":"High 10","Type":1,"AspectRatio":"16:9","Index":0,"Score":null,"IsExternal":false,"DeliveryMethod":null,"DeliveryUrl":null,"IsExternalUrl":null,"IsTextSubtitleStream":false,"SupportsExternalStream":false,"Path":null,"PixelFormat":"yuv420p10le","Level":50,"IsAnamorphic":null},{"Codec":"opus","CodecTag":null,"Language":"jpn","ColorRange":null,"ColorSpace":null,"ColorTransfer":null,"ColorPrimaries":null,"DvVersionMajor":null,"DvVersionMinor":null,"DvProfile":null,"DvLevel":null,"RpuPresentFlag":null,"ElPresentFlag":null,"BlPresentFlag":null,"DvBlSignalCompatibilityId":null,"Comment":null,"TimeBase":"1/1000","CodecTimeBase":null,"Title":null,"VideoRange":null,"VideoRangeType":null,"VideoDoViTitle":null,"LocalizedUndefined":null,"LocalizedDefault":null,"LocalizedForced":null,"LocalizedExternal":null,"DisplayTitle":"Japanese - OPUS - Stereo - Default","NalLengthSize":null,"IsInterlaced":false,"IsAVC":null,"ChannelLayout":"stereo","BitRate":121209,"BitDepth":null,"RefFrames":null,"PacketLength":null,"Channels":2,"SampleRate":48000,"IsDefault":true,"IsForced":false,"Height":null,"Width":null,"AverageFrameRate":null,"RealFrameRate":null,"Profile":null,"Type":0,"AspectRatio":null,"Index":1,"Score":null,"IsExternal":false,"DeliveryMethod":null,"DeliveryUrl":null,"IsExternalUrl":null,"IsTextSubtitleStream":false,"SupportsExternalStream":false,"Path":null,"PixelFormat":null,"Level":0,"IsAnamorphic":null},{"Codec":"ass","CodecTag":null,"Language":"ita","ColorRange":null,"ColorSpace":null,"ColorTransfer":null,"ColorPrimaries":null,"DvVersionMajor":null,"DvVersionMinor":null,"DvProfile":null,"DvLevel":null,"RpuPresentFlag":null,"ElPresentFlag":null,"BlPresentFlag":null,"DvBlSignalCompatibilityId":null,"Comment":null,"TimeBase":"1/1000","CodecTimeBase":null,"Title":null,"VideoRange":null,"VideoRangeType":null,"VideoDoViTitle":null,"LocalizedUndefined":"Undefined","LocalizedDefault":"Default","LocalizedForced":"Forced","LocalizedExternal":"External","DisplayTitle":"Italian - Default - ASS","NalLengthSize":null,"IsInterlaced":false,"IsAVC":null,"ChannelLayout":null,"BitRate":null,"BitDepth":null,"RefFrames":null,"PacketLength":null,"Channels":null,"SampleRate":null,"IsDefault":true,"IsForced":false,"Height":null,"Width":null,"AverageFrameRate":null,"RealFrameRate":null,"Profile":null,"Type":2,"AspectRatio":null,"Index":2,"Score":null,"IsExternal":false,"DeliveryMethod":null,"DeliveryUrl":null,"IsExternalUrl":null,"IsTextSubtitleStream":true,"SupportsExternalStream":true,"Path":null,"PixelFormat":null,"Level":0,"IsAnamorphic":null}],"MediaAttachments":[{"Codec":"ttf","CodecTag":"[0][0][0][0]","Comment":null,"Index":3,"FileName":"AlegreyaSansSC-BlackItalic.ttf","MimeType":"application/x-truetype-font","DeliveryUrl":null},{"Codec":"otf","CodecTag":"[0][0][0][0]","Comment":null,"Index":4,"FileName":"Amaranth-Bold.otf","MimeType":"application/vnd.ms-opentype","DeliveryUrl":null},{"Codec":"otf","CodecTag":"[0][0][0][0]","Comment":null,"Index":5,"FileName":"Amaranth-BoldItalic.otf","MimeType":"application/vnd.ms-opentype","DeliveryUrl":null},{"Codec":"otf","CodecTag":"[0][0][0][0]","Comment":null,"Index":6,"FileName":"Amaranth-Italic.otf","MimeType":"application/vnd.ms-opentype","DeliveryUrl":null},{"Codec":"otf","CodecTag":"[0][0][0][0]","Comment":null,"Index":7,"FileName":"Amaranth-Regular.otf","MimeType":"application/vnd.ms-opentype","DeliveryUrl":null},{"Codec":"ttf","CodecTag":"[0][0][0][0]","Comment":null,"Index":8,"FileName":"ARCENA.ttf","MimeType":"application/x-truetype-font","DeliveryUrl":null},{"Codec":"ttf","CodecTag":"[0][0][0][0]","Comment":null,"Index":9,"FileName":"ariblk.ttf","MimeType":"application/x-truetype-font","DeliveryUrl":null},{"Codec":"ttf","CodecTag":"[0][0][0][0]","Comment":null,"Index":10,"FileName":"BLOKLETTERS-VILTSTIFT-FXD.TTF","MimeType":"application/x-truetype-font","DeliveryUrl":null},{"Codec":"ttf","CodecTag":"[0][0][0][0]","Comment":null,"Index":11,"FileName":"Brush Strokes.ttf","MimeType":"application/x-truetype-font","DeliveryUrl":null},{"Codec":"ttf","CodecTag":"[0][0][0][0]","Comment":null,"Index":12,"FileName":"calibri.ttf","MimeType":"application/x-truetype-font","DeliveryUrl":null},{"Codec":"ttf","CodecTag":"[0][0][0][0]","Comment":null,"Index":13,"FileName":"calibrib.ttf","MimeType":"application/x-truetype-font","DeliveryUrl":null},{"Codec":"ttf","CodecTag":"[0][0][0][0]","Comment":null,"Index":14,"FileName":"Calligraphic-810-BT_9088.ttf","MimeType":"application/x-truetype-font","DeliveryUrl":null},{"Codec":"ttf","CodecTag":"[0][0][0][0]","Comment":null,"Index":15,"FileName":"Cardo-Bold.ttf","MimeType":"application/x-truetype-font","DeliveryUrl":null},{"Codec":"ttf","CodecTag":"[0][0][0][0]","Comment":null,"Index":16,"FileName":"Cardo-Italic.ttf","MimeType":"application/x-truetype-font","DeliveryUrl":null},{"Codec":"ttf","CodecTag":"[0][0][0][0]","Comment":null,"Index":17,"FileName":"Cardo-Regular.ttf","MimeType":"application/x-truetype-font","DeliveryUrl":null},{"Codec":"otf","CodecTag":"[0][0][0][0]","Comment":null,"Index":18,"FileName":"Chalkaholic DEMO.otf","MimeType":"application/vnd.ms-opentype","DeliveryUrl":null},{"Codec":"ttf","CodecTag":"[0][0][0][0]","Comment":null,"Index":19,"FileName":"DK CRAYON CRUMBLE_0.TTF","MimeType":"application/x-truetype-font","DeliveryUrl":null},{"Codec":"ttf","CodecTag":"[0][0][0][0]","Comment":null,"Index":20,"FileName":"edo.ttf","MimeType":"application/x-truetype-font","DeliveryUrl":null},{"Codec":"ttf","CodecTag":"[0][0][0][0]","Comment":null,"Index":21,"FileName":"EPSON sl.ttf","MimeType":"application/x-truetype-font","DeliveryUrl":null},{"Codec":"ttf","CodecTag":"[0][0][0][0]","Comment":null,"Index":22,"FileName":"flibustiere.ttf","MimeType":"application/x-truetype-font","DeliveryUrl":null},{"Codec":"ttf","CodecTag":"[0][0][0][0]","Comment":null,"Index":23,"FileName":"FOT Rodin Cattleta Pro B.ttf","MimeType":"application/x-truetype-font","DeliveryUrl":null},{"Codec":"otf","CodecTag":"[0][0][0][0]","Comment":null,"Index":24,"FileName":"FOT-HummingStd-E.otf","MimeType":"application/vnd.ms-opentype","DeliveryUrl":null},{"Codec":"otf","CodecTag":"[0][0][0][0]","Comment":null,"Index":25,"FileName":"FOT-HummingStdEn-B.OTF","MimeType":"application/vnd.ms-opentype","DeliveryUrl":null},{"Codec":"ttf","CodecTag":"[0][0][0][0]","Comment":null,"Index":26,"FileName":"FOT-KokinHige Std EB v999.ttf","MimeType":"application/x-truetype-font","DeliveryUrl":null},{"Codec":"otf","CodecTag":"[0][0][0][0]","Comment":null,"Index":27,"FileName":"FOT-ManyoKoinStd-B.otf","MimeType":"application/vnd.ms-opentype","DeliveryUrl":null},{"Codec":"ttf","CodecTag":"[0][0][0][0]","Comment":null,"Index":28,"FileName":"FOT-ManyoKoinStd-B_0.ttf","MimeType":"application/x-truetype-font","DeliveryUrl":null},{"Codec":"otf","CodecTag":"[0][0][0][0]","Comment":null,"Index":29,"FileName":"FOT-YurukaStd-UB.otf","MimeType":"application/vnd.ms-opentype","DeliveryUrl":null},{"Codec":"ttf","CodecTag":"[0][0][0][0]","Comment":null,"Index":30,"FileName":"GenBasB.ttf","MimeType":"application/x-truetype-font","DeliveryUrl":null},{"Codec":"ttf","CodecTag":"[0][0][0][0]","Comment":null,"Index":31,"FileName":"GenBasBI.ttf","MimeType":"application/x-truetype-font","DeliveryUrl":null},{"Codec":"ttf","CodecTag":"[0][0][0][0]","Comment":null,"Index":32,"FileName":"GenBasI.ttf","MimeType":"application/x-truetype-font","DeliveryUrl":null},{"Codec":"ttf","CodecTag":"[0][0][0][0]","Comment":null,"Index":33,"FileName":"GenBasR.ttf","MimeType":"application/x-truetype-font","DeliveryUrl":null},{"Codec":"ttf","CodecTag":"[0][0][0][0]","Comment":null,"Index":34,"FileName":"GenBkBasB.ttf","MimeType":"application/x-truetype-font","DeliveryUrl":null},{"Codec":"ttf","CodecTag":"[0][0][0][0]","Comment":null,"Index":35,"FileName":"GenBkBasBI.ttf","MimeType":"application/x-truetype-font","DeliveryUrl":null},{"Codec":"ttf","CodecTag":"[0][0][0][0]","Comment":null,"Index":36,"FileName":"GenBkBasI.ttf","MimeType":"application/x-truetype-font","DeliveryUrl":null},{"Codec":"ttf","CodecTag":"[0][0][0][0]","Comment":null,"Index":37,"FileName":"GenBkBasR.ttf","MimeType":"application/x-truetype-font","DeliveryUrl":null},{"Codec":"ttf","CodecTag":"[0][0][0][0]","Comment":null,"Index":38,"FileName":"HunterxHunterOP.ttf","MimeType":"application/x-truetype-font","DeliveryUrl":null},{"Codec":"ttf","CodecTag":"[0][0][0][0]","Comment":null,"Index":39,"FileName":"IwaGyoPro-Bd-Kami.ttf","MimeType":"application/x-truetype-font","DeliveryUrl":null},{"Codec":"otf","CodecTag":"[0][0][0][0]","Comment":null,"Index":40,"FileName":"IwaMaruGothicPro-M-En.otf","MimeType":"application/vnd.ms-opentype","DeliveryUrl":null},{"Codec":"otf","CodecTag":"[0][0][0][0]","Comment":null,"Index":41,"FileName":"IWAMINPRO-BD-EN.otf","MimeType":"application/vnd.ms-opentype","DeliveryUrl":null},{"Codec":"ttf","CodecTag":"[0][0][0][0]","Comment":null,"Index":42,"FileName":"IwaMinPro-Bd-NMG.ttf","MimeType":"application/x-truetype-font","DeliveryUrl":null},{"Codec":"ttf","CodecTag":"[0][0][0][0]","Comment":null,"Index":43,"FileName":"IwaMinPro-Lt-Madoka.ttf","MimeType":"application/x-truetype-font","DeliveryUrl":null},{"Codec":"ttf","CodecTag":"[0][0][0][0]","Comment":null,"Index":44,"FileName":"IwaMinPro-Md-Kami_0.ttf","MimeType":"application/x-truetype-font","DeliveryUrl":null},{"Codec":"ttf","CodecTag":"[0][0][0][0]","Comment":null,"Index":45,"FileName":"IwaOMinPro-Bd-Fate.ttf","MimeType":"application/x-truetype-font","DeliveryUrl":null},{"Codec":"otf","CodecTag":"[0][0][0][0]","Comment":null,"Index":46,"FileName":"IwaOMinPro-Hv-En.ttf","MimeType":"application/vnd.ms-opentype","DeliveryUrl":null},{"Codec":"ttf","CodecTag":"[0][0][0][0]","Comment":null,"Index":47,"FileName":"IwaOMinPro-Hv-Fate_0.ttf","MimeType":"application/x-truetype-font","DeliveryUrl":null},{"Codec":"ttf","CodecTag":"[0][0][0][0]","Comment":null,"Index":48,"FileName":"IwaRGoPro-Lt-Kami.ttf","MimeType":"application/x-truetype-font","DeliveryUrl":null},{"Codec":"ttf","CodecTag":"[0][0][0][0]","Comment":null,"Index":49,"FileName":"IWARGOPRO-MD-KAMI.TTF","MimeType":"application/x-truetype-font","DeliveryUrl":null},{"Codec":"otf","CodecTag":"[0][0][0][0]","Comment":null,"Index":50,"FileName":"Iwata Souchou Pro-Medium.otf","MimeType":"application/vnd.ms-opentype","DeliveryUrl":null},{"Codec":"ttf","CodecTag":"[0][0][0][0]","Comment":null,"Index":51,"FileName":"JandaCloserToFree-Regular.ttf","MimeType":"application/x-truetype-font","DeliveryUrl":null},{"Codec":"ttf","CodecTag":"[0][0][0][0]","Comment":null,"Index":52,"FileName":"KozGoProH-Madoka.ttf","MimeType":"application/x-truetype-font","DeliveryUrl":null},{"Codec":"ttf","CodecTag":"[0][0][0][0]","Comment":null,"Index":53,"FileName":"lato-heavy.ttf","MimeType":"application/x-truetype-font","DeliveryUrl":null},{"Codec":"otf","CodecTag":"[0][0][0][0]","Comment":null,"Index":54,"FileName":"MONTARA-GOTHIC.OTF","MimeType":"application/vnd.ms-opentype","DeliveryUrl":null},{"Codec":"ttf","CodecTag":"[0][0][0][0]","Comment":null,"Index":55,"FileName":"Polo Brush.ttf","MimeType":"application/x-truetype-font","DeliveryUrl":null},{"Codec":"ttf","CodecTag":"[0][0][0][0]","Comment":null,"Index":56,"FileName":"SBT-TsukuMin Pr5 E.ttf","MimeType":"application/x-truetype-font","DeliveryUrl":null},{"Codec":"ttf","CodecTag":"[0][0][0][0]","Comment":null,"Index":57,"FileName":"SHREDDED.TTF","MimeType":"application/x-truetype-font","DeliveryUrl":null},{"Codec":"ttf","CodecTag":"[0][0][0][0]","Comment":null,"Index":58,"FileName":"TarifArabic-Bold.ttf","MimeType":"application/x-truetype-font","DeliveryUrl":null},{"Codec":"ttf","CodecTag":"[0][0][0][0]","Comment":null,"Index":59,"FileName":"TarifArabic-Book.ttf","MimeType":"application/x-truetype-font","DeliveryUrl":null},{"Codec":"ttf","CodecTag":"[0][0][0][0]","Comment":null,"Index":60,"FileName":"TarifArabic-Extrabold.ttf","MimeType":"application/x-truetype-font","DeliveryUrl":null},{"Codec":"ttf","CodecTag":"[0][0][0][0]","Comment":null,"Index":61,"FileName":"TarifArabic-Extralight.ttf","MimeType":"application/x-truetype-font","DeliveryUrl":null},{"Codec":"ttf","CodecTag":"[0][0][0][0]","Comment":null,"Index":62,"FileName":"TarifArabic-Light.ttf","MimeType":"application/x-truetype-font","DeliveryUrl":null},{"Codec":"ttf","CodecTag":"[0][0][0][0]","Comment":null,"Index":63,"FileName":"TarifArabic-Medium.ttf","MimeType":"application/x-truetype-font","DeliveryUrl":null},{"Codec":"ttf","CodecTag":"[0][0][0][0]","Comment":null,"Index":64,"FileName":"TarifArabic-Regular.ttf","MimeType":"application/x-truetype-font","DeliveryUrl":null},{"Codec":"ttf","CodecTag":"[0][0][0][0]","Comment":null,"Index":65,"FileName":"Yu-Gi-Oh! Matrix Book.ttf","MimeType":"application/x-truetype-font","DeliveryUrl":null},{"Codec":"ttf","CodecTag":"[0][0][0][0]","Comment":null,"Index":66,"FileName":"Yu-Gi-Oh! Matrix Regular Small Caps 2.ttf","MimeType":"application/x-truetype-font","DeliveryUrl":null},{"Codec":"ttf","CodecTag":"[0][0][0][0]","Comment":null,"Index":67,"FileName":"28 Days Later.ttf","MimeType":"application/x-truetype-font","DeliveryUrl":null},{"Codec":"ttf","CodecTag":"[0][0][0][0]","Comment":null,"Index":68,"FileName":"Ad HocRegular.ttf","MimeType":"application/x-truetype-font","DeliveryUrl":null},{"Codec":"ttf","CodecTag":"[0][0][0][0]","Comment":null,"Index":69,"FileName":"Adobe_Garamond_LT_Bold.ttf","MimeType":"application/x-truetype-font","DeliveryUrl":null},{"Codec":"ttf","CodecTag":"[0][0][0][0]","Comment":null,"Index":70,"FileName":"AlegreyaSansSC-Black.ttf","MimeType":"application/x-truetype-font","DeliveryUrl":null}],"Formats":[],"Bitrate":2896907,"Timestamp":null,"RequiredHttpHeaders":{},"TranscodingUrl":null,"TranscodingSubProtocol":null,"TranscodingContainer":null,"AnalyzeDurationMs":null,"DefaultAudioStreamIndex":null,"DefaultSubtitleStreamIndex":null}

/usr/lib/jellyfin-ffmpeg/ffmpeg -analyzeduration 200M -fflags +genpts -f matroska,webm  -i file:"/data/tvshows/Hunter x Hunter (2011)/Season 2/Hunter x Hunter (2011) - S02E25 - Inspiration x To x Evolve Bluray-720p.mkv" -map_metadata -1 -map_chapters -1 -threads 0 -map 0:0 -map 0:1 -map -0:s -codec:v:0 copy -bsf:v h264_mp4toannexb -start_at_zero -codec:a:0 libfdk_aac -ac 2 -ab 256000 -copyts -avoid_negative_ts disabled -max_muxing_queue_size 2048 -f hls -max_delay 5000000 -hls_time 6 -hls_segment_type mpegts -start_number 0 -hls_segment_filename "/data/transcodes/d0152ffcdfe7674bc01b2e1ed66c13c2%d.ts" -hls_playlist_type vod -hls_list_size 0 -y "/data/transcodes/d0152ffcdfe7674bc01b2e1ed66c13c2.m3u8"


ffmpeg version 5.1.3-Jellyfin Copyright (c) 2000-2022 the FFmpeg developers
  built with gcc 11 (Ubuntu 11.3.0-1ubuntu1~22.04.1)
  configuration: --prefix=/usr/lib/jellyfin-ffmpeg --target-os=linux --extra-libs=-lfftw3f --extra-version=Jellyfin --disable-doc --disable-ffplay --disable-ptx-compression --disable-static --disable-libxcb --disable-sdl2 --disable-xlib --enable-lto --enable-gpl --enable-version3 --enable-shared --enable-gmp --enable-gnutls --enable-chromaprint --enable-libdrm --enable-libass --enable-libfreetype --enable-libfribidi --enable-libfontconfig --enable-libbluray --enable-libmp3lame --enable-libopus --enable-libtheora --enable-libvorbis --enable-libopenmpt --enable-libdav1d --enable-libwebp --enable-libvpx --enable-libx264 --enable-libx265 --enable-libzvbi --enable-libzimg --enable-libfdk-aac --arch=amd64 --enable-libsvtav1 --enable-libshaderc --enable-libplacebo --enable-vulkan --enable-opencl --enable-vaapi --enable-amf --enable-libmfx --enable-ffnvcodec --enable-cuda --enable-cuda-llvm --enable-cuvid --enable-nvdec --enable-nvenc
  libavutil      57. 28.100 / 57. 28.100
  libavcodec     59. 37.100 / 59. 37.100
  libavformat    59. 27.100 / 59. 27.100
  libavdevice    59.  7.100 / 59.  7.100
  libavfilter     8. 44.100 /  8. 44.100
  libswscale      6.  7.100 /  6.  7.100
  libswresample   4.  7.100 /  4.  7.100
  libpostproc    56.  6.100 / 56.  6.100
Input #0, matroska,webm, from 'file:/data/tvshows/Hunter x Hunter (2011)/Season 2/Hunter x Hunter (2011) - S02E25 - Inspiration x To x Evolve Bluray-720p.mkv':
  Metadata:
    creation_time   : 2021-01-02T11:09:57.000000Z
    ENCODER         : Lavf58.27.103
  Duration: 00:23:36.42, start: -0.007000, bitrate: 2775 kb/s
  Chapters:
    Chapter #0:0: start 0.000000, end 29.995000
      Metadata:
        title           : Prologo
    Chapter #0:1: start 30.037000, end 109.992000
      Metadata:
        title           : Sigla iniziale
    Chapter #0:2: start 110.034000, end 662.002000
      Metadata:
        title           : Prima parte
    Chapter #0:3: start 662.043000, end 1320.034000
      Metadata:
        title           : Seconda parte
    Chapter #0:4: start 1320.076000, end 1400.031000
      Metadata:
        title           : Sigla finale
    Chapter #0:5: start 1400.072000, end 1415.046000
      Metadata:
        title           : Anticipazioni
  Stream #0:0(jpn): Video: h264 (High 10), yuv420p10le(progressive), 1280x720, SAR 1:1 DAR 16:9, 23.98 fps, 23.98 tbr, 1k tbn (default)
    Metadata:
      title           : Hunter x Hunter 083: Ispirazione x Ed x Evoluzione
      BPS-eng         : 2260963
      DURATION-eng    : 00:23:35.088000000
      NUMBER_OF_FRAMES-eng: 33928
      NUMBER_OF_BYTES-eng: 399932878
      _STATISTICS_WRITING_APP-eng: mkvmerge v34.0.0 ('Sight and Seen') 64-bit
      _STATISTICS_WRITING_DATE_UTC-eng: 2021-01-02 11:09:57
      _STATISTICS_TAGS-eng: BPS DURATION NUMBER_OF_FRAMES NUMBER_OF_BYTES
  Stream #0:1(jpn): Audio: opus, 48000 Hz, stereo, fltp (default)
    Metadata:
      ENCODER         : Lavc58.52.102 libopus
      BPS-eng         : 121209
      DURATION-eng    : 00:23:36.418000000
      NUMBER_OF_FRAMES-eng: 70821
      NUMBER_OF_BYTES-eng: 21460356
      _STATISTICS_WRITING_APP-eng: mkvmerge v34.0.0 ('Sight and Seen') 64-bit
      _STATISTICS_WRITING_DATE_UTC-eng: 2021-01-02 11:09:57
      _STATISTICS_TAGS-eng: BPS DURATION NUMBER_OF_FRAMES NUMBER_OF_BYTES
  Stream #0:2(ita): Subtitle: ass (default)
    Metadata:
      BPS-eng         : 10655
      DURATION-eng    : 00:23:32.830000000
      NUMBER_OF_FRAMES-eng: 1822
      NUMBER_OF_BYTES-eng: 1881807
      _STATISTICS_WRITING_APP-eng: mkvmerge v34.0.0 ('Sight and Seen') 64-bit
      _STATISTICS_WRITING_DATE_UTC-eng: 2021-01-02 11:09:57
      _STATISTICS_TAGS-eng: BPS DURATION NUMBER_OF_FRAMES NUMBER_OF_BYTES
  Stream #0:3: Attachment: ttf
    Metadata:
      filename        : AlegreyaSansSC-BlackItalic.ttf
      mimetype        : application/x-truetype-font
  Stream #0:4: Attachment: otf
    Metadata:
      filename        : Amaranth-Bold.otf
      mimetype        : application/vnd.ms-opentype
  Stream #0:5: Attachment: otf
    Metadata:
      filename        : Amaranth-BoldItalic.otf
      mimetype        : application/vnd.ms-opentype
  Stream #0:6: Attachment: otf
    Metadata:
      filename        : Amaranth-Italic.otf
      mimetype        : application/vnd.ms-opentype
  Stream #0:7: Attachment: otf
    Metadata:
      filename        : Amaranth-Regular.otf
      mimetype        : application/vnd.ms-opentype
  Stream #0:8: Attachment: ttf
    Metadata:
      filename        : ARCENA.ttf
      mimetype        : application/x-truetype-font
  Stream #0:9: Attachment: ttf
    Metadata:
      filename        : ariblk.ttf
      mimetype        : application/x-truetype-font
  Stream #0:10: Attachment: ttf
    Metadata:
      filename        : BLOKLETTERS-VILTSTIFT-FXD.TTF
      mimetype        : application/x-truetype-font
  Stream #0:11: Attachment: ttf
    Metadata:
      filename        : Brush Strokes.ttf
      mimetype        : application/x-truetype-font
  Stream #0:12: Attachment: ttf
    Metadata:
      filename        : calibri.ttf
      mimetype        : application/x-truetype-font
  Stream #0:13: Attachment: ttf
    Metadata:
      filename        : calibrib.ttf
      mimetype        : application/x-truetype-font
  Stream #0:14: Attachment: ttf
    Metadata:
      filename        : Calligraphic-810-BT_9088.ttf
      mimetype        : application/x-truetype-font
  Stream #0:15: Attachment: ttf
    Metadata:
      filename        : Cardo-Bold.ttf
      mimetype        : application/x-truetype-font
  Stream #0:16: Attachment: ttf
    Metadata:
      filename        : Cardo-Italic.ttf
      mimetype        : application/x-truetype-font
  Stream #0:17: Attachment: ttf
    Metadata:
      filename        : Cardo-Regular.ttf
      mimetype        : application/x-truetype-font
  Stream #0:18: Attachment: otf
    Metadata:
      filename        : Chalkaholic DEMO.otf
      mimetype        : application/vnd.ms-opentype
  Stream #0:19: Attachment: ttf
    Metadata:
      filename        : DK CRAYON CRUMBLE_0.TTF
      mimetype        : application/x-truetype-font
  Stream #0:20: Attachment: ttf
    Metadata:
      filename        : edo.ttf
      mimetype        : application/x-truetype-font
  Stream #0:21: Attachment: ttf
    Metadata:
      filename        : EPSON sl.ttf
      mimetype        : application/x-truetype-font
  Stream #0:22: Attachment: ttf
    Metadata:
      filename        : flibustiere.ttf
      mimetype        : application/x-truetype-font
  Stream #0:23: Attachment: ttf
    Metadata:
      filename        : FOT Rodin Cattleta Pro B.ttf
      mimetype        : application/x-truetype-font
  Stream #0:24: Attachment: otf
    Metadata:
      filename        : FOT-HummingStd-E.otf
      mimetype        : application/vnd.ms-opentype
  Stream #0:25: Attachment: otf
    Metadata:
      filename        : FOT-HummingStdEn-B.OTF
      mimetype        : application/vnd.ms-opentype
  Stream #0:26: Attachment: ttf
    Metadata:
      filename        : FOT-KokinHige Std EB v999.ttf
      mimetype        : application/x-truetype-font
  Stream #0:27: Attachment: otf
    Metadata:
      filename        : FOT-ManyoKoinStd-B.otf
      mimetype        : application/vnd.ms-opentype
  Stream #0:28: Attachment: ttf
    Metadata:
      filename        : FOT-ManyoKoinStd-B_0.ttf
      mimetype        : application/x-truetype-font
  Stream #0:29: Attachment: otf
    Metadata:
      filename        : FOT-YurukaStd-UB.otf
      mimetype        : application/vnd.ms-opentype
  Stream #0:30: Attachment: ttf
    Metadata:
      filename        : GenBasB.ttf
      mimetype        : application/x-truetype-font
  Stream #0:31: Attachment: ttf
    Metadata:
      filename        : GenBasBI.ttf
      mimetype        : application/x-truetype-font
  Stream #0:32: Attachment: ttf
    Metadata:
      filename        : GenBasI.ttf
      mimetype        : application/x-truetype-font
  Stream #0:33: Attachment: ttf
    Metadata:
      filename        : GenBasR.ttf
      mimetype        : application/x-truetype-font
  Stream #0:34: Attachment: ttf
    Metadata:
      filename        : GenBkBasB.ttf
      mimetype        : application/x-truetype-font
  Stream #0:35: Attachment: ttf
    Metadata:
      filename        : GenBkBasBI.ttf
      mimetype        : application/x-truetype-font
  Stream #0:36: Attachment: ttf
    Metadata:
      filename        : GenBkBasI.ttf
      mimetype        : application/x-truetype-font
  Stream #0:37: Attachment: ttf
    Metadata:
      filename        : GenBkBasR.ttf
      mimetype        : application/x-truetype-font
  Stream #0:38: Attachment: ttf
    Metadata:
      filename        : HunterxHunterOP.ttf
      mimetype        : application/x-truetype-font
  Stream #0:39: Attachment: ttf
    Metadata:
      filename        : IwaGyoPro-Bd-Kami.ttf
      mimetype        : application/x-truetype-font
  Stream #0:40: Attachment: otf
    Metadata:
      filename        : IwaMaruGothicPro-M-En.otf
      mimetype        : application/vnd.ms-opentype
  Stream #0:41: Attachment: otf
    Metadata:
      filename        : IWAMINPRO-BD-EN.otf
      mimetype        : application/vnd.ms-opentype
  Stream #0:42: Attachment: ttf
    Metadata:
      filename        : IwaMinPro-Bd-NMG.ttf
      mimetype        : application/x-truetype-font
  Stream #0:43: Attachment: ttf
    Metadata:
      filename        : IwaMinPro-Lt-Madoka.ttf
      mimetype        : application/x-truetype-font
  Stream #0:44: Attachment: ttf
    Metadata:
      filename        : IwaMinPro-Md-Kami_0.ttf
      mimetype        : application/x-truetype-font
  Stream #0:45: Attachment: ttf
    Metadata:
      filename        : IwaOMinPro-Bd-Fate.ttf
      mimetype        : application/x-truetype-font
  Stream #0:46: Attachment: otf
    Metadata:
      filename        : IwaOMinPro-Hv-En.ttf
      mimetype        : application/vnd.ms-opentype
  Stream #0:47: Attachment: ttf
    Metadata:
      filename        : IwaOMinPro-Hv-Fate_0.ttf
      mimetype        : application/x-truetype-font
  Stream #0:48: Attachment: ttf
    Metadata:
      filename        : IwaRGoPro-Lt-Kami.ttf
      mimetype        : application/x-truetype-font
  Stream #0:49: Attachment: ttf
    Metadata:
      filename        : IWARGOPRO-MD-KAMI.TTF
      mimetype        : application/x-truetype-font
  Stream #0:50: Attachment: otf
    Metadata:
      filename        : Iwata Souchou Pro-Medium.otf
      mimetype        : application/vnd.ms-opentype
  Stream #0:51: Attachment: ttf
    Metadata:
      filename        : JandaCloserToFree-Regular.ttf
      mimetype        : application/x-truetype-font
  Stream #0:52: Attachment: ttf
    Metadata:
      filename        : KozGoProH-Madoka.ttf
      mimetype        : application/x-truetype-font
  Stream #0:53: Attachment: ttf
    Metadata:
      filename        : lato-heavy.ttf
      mimetype        : application/x-truetype-font
  Stream #0:54: Attachment: otf
    Metadata:
      filename        : MONTARA-GOTHIC.OTF
      mimetype        : application/vnd.ms-opentype
  Stream #0:55: Attachment: ttf
    Metadata:
      filename        : Polo Brush.ttf
      mimetype        : application/x-truetype-font
  Stream #0:56: Attachment: ttf
    Metadata:
      filename        : SBT-TsukuMin Pr5 E.ttf
      mimetype        : application/x-truetype-font
  Stream #0:57: Attachment: ttf
    Metadata:
      filename        : SHREDDED.TTF
      mimetype        : application/x-truetype-font
  Stream #0:58: Attachment: ttf
    Metadata:
      filename        : TarifArabic-Bold.ttf
      mimetype        : application/x-truetype-font
  Stream #0:59: Attachment: ttf
    Metadata:
      filename        : TarifArabic-Book.ttf
      mimetype        : application/x-truetype-font
  Stream #0:60: Attachment: ttf
    Metadata:
      filename        : TarifArabic-Extrabold.ttf
      mimetype        : application/x-truetype-font
  Stream #0:61: Attachment: ttf
    Metadata:
      filename        : TarifArabic-Extralight.ttf
      mimetype        : application/x-truetype-font
  Stream #0:62: Attachment: ttf
    Metadata:
      filename        : TarifArabic-Light.ttf
      mimetype        : application/x-truetype-font
  Stream #0:63: Attachment: ttf
    Metadata:
      filename        : TarifArabic-Medium.ttf
      mimetype        : application/x-truetype-font
  Stream #0:64: Attachment: ttf
    Metadata:
      filename        : TarifArabic-Regular.ttf
      mimetype        : application/x-truetype-font
  Stream #0:65: Attachment: ttf
    Metadata:
      filename        : Yu-Gi-Oh! Matrix Book.ttf
      mimetype        : application/x-truetype-font
  Stream #0:66: Attachment: ttf
    Metadata:
      filename        : Yu-Gi-Oh! Matrix Regular Small Caps 2.ttf
      mimetype        : application/x-truetype-font
  Stream #0:67: Attachment: ttf
    Metadata:
      filename        : 28 Days Later.ttf
      mimetype        : application/x-truetype-font
  Stream #0:68: Attachment: ttf
    Metadata:
      filename        : Ad HocRegular.ttf
      mimetype        : application/x-truetype-font
  Stream #0:69: Attachment: ttf
    Metadata:
      filename        : Adobe_Garamond_LT_Bold.ttf
      mimetype        : application/x-truetype-font
  Stream #0:70: Attachment: ttf
    Metadata:
      filename        : AlegreyaSansSC-Black.ttf
      mimetype        : application/x-truetype-font
Stream mapping:
  Stream #0:0 -> #0:0 (copy)
  Stream #0:1 -> #0:1 (opus (native) -> aac (libfdk_aac))
Press [q] to stop, [?] for help
Output #0, hls, to '/data/transcodes/d0152ffcdfe7674bc01b2e1ed66c13c2.m3u8':
  Metadata:
    encoder         : Lavf59.27.100
  Stream #0:0: Video: h264 (High 10), yuv420p10le(progressive), 1280x720 [SAR 1:1 DAR 16:9], q=2-31, 23.98 fps, 23.98 tbr, 90k tbn (default)
  Stream #0:1: Audio: aac, 48000 Hz, stereo, s16, 256 kb/s (default)
    Metadata:
      encoder         : Lavc59.37.100 libfdk_aac
frame=    0 fps=0.0 q=-1.0 size=N/A time=00:00:00.00 bitrate=N/A speed=N/A    
[hls @ 0x5651155e1500] Opening '/data/transcodes/d0152ffcdfe7674bc01b2e1ed66c13c20.ts' for writing
[hls @ 0x5651155e1500] Opening '/data/transcodes/d0152ffcdfe7674bc01b2e1ed66c13c21.ts' for writing
frame=  567 fps=0.0 q=-1.0 size=N/A time=00:00:00.21 bitrate=N/A speed=0.427x    
[hls @ 0x5651155e1500] Opening '/data/transcodes/d0152ffcdfe7674bc01b2e1ed66c13c22.ts' for writing
[hls @ 0x5651155e1500] Opening '/data/transcodes/d0152ffcdfe7674bc01b2e1ed66c13c23.ts' for writing
[hls @ 0x5651155e1500] Opening '/data/transcodes/d0152ffcdfe7674bc01b2e1ed66c13c24.ts' for writing
frame= 1120 fps=1119 q=-1.0 size=N/A time=00:00:23.27 bitrate=N/A speed=23.3x    
[hls @ 0x5651155e1500] Opening '/data/transcodes/d0152ffcdfe7674bc01b2e1ed66c13c25.ts' for writing
[hls @ 0x5651155e1500] Opening '/data/transcodes/d0152ffcdfe7674bc01b2e1ed66c13c26.ts' for writing
[hls @ 0x5651155e1500] Opening '/data/transcodes/d0152ffcdfe7674bc01b2e1ed66c13c27.ts' for writing
[hls @ 0x5651155e1500] Opening '/data/transcodes/d0152ffcdfe7674bc01b2e1ed66c13c28.ts' for writing
frame= 1629 fps=1085 q=-1.0 size=N/A time=00:00:44.54 bitrate=N/A speed=29.7x    
[hls @ 0x5651155e1500] Opening '/data/transcodes/d0152ffcdfe7674bc01b2e1ed66c13c29.ts' for writing
[hls @ 0x5651155e1500] Opening '/data/transcodes/d0152ffcdfe7674bc01b2e1ed66c13c210.ts' for writing
frame= 2155 fps=1077 q=-1.0 size=N/A time=00:01:06.60 bitrate=N/A speed=33.3x    
[hls @ 0x5651155e1500] Opening '/data/transcodes/d0152ffcdfe7674bc01b2e1ed66c13c211.ts' for writing
[hls @ 0x5651155e1500] Opening '/data/transcodes/d0152ffcdfe7674bc01b2e1ed66c13c212.ts' for writing
frame= 2634 fps=1053 q=-1.0 size=N/A time=00:01:26.50 bitrate=N/A speed=34.6x    
[hls @ 0x5651155e1500] Opening '/data/transcodes/d0152ffcdfe7674bc01b2e1ed66c13c213.ts' for writing
[hls @ 0x5651155e1500] Opening '/data/transcodes/d0152ffcdfe7674bc01b2e1ed66c13c214.ts' for writing
[hls @ 0x5651155e1500] Opening '/data/transcodes/d0152ffcdfe7674bc01b2e1ed66c13c215.ts' for writing
[hls @ 0x5651155e1500] Opening '/data/transcodes/d0152ffcdfe7674bc01b2e1ed66c13c216.ts' for writing
frame= 3171 fps=1056 q=-1.0 size=N/A time=00:01:49.01 bitrate=N/A speed=36.3x    
[hls @ 0x5651155e1500] Opening '/data/transcodes/d0152ffcdfe7674bc01b2e1ed66c13c217.ts' for writing
[hls @ 0x5651155e1500] Opening '/data/transcodes/d0152ffcdfe7674bc01b2e1ed66c13c218.ts' for writing
[hls @ 0x5651155e1500] Opening '/data/transcodes/d0152ffcdfe7674bc01b2e1ed66c13c219.ts' for writing
frame= 3730 fps=1065 q=-1.0 size=N/A time=00:02:12.05 bitrate=N/A speed=37.7x    
[hls @ 0x5651155e1500] Opening '/data/transcodes/d0152ffcdfe7674bc01b2e1ed66c13c220.ts' for writing
[hls @ 0x5651155e1500] Opening '/data/transcodes/d0152ffcdfe7674bc01b2e1ed66c13c221.ts' for writing
[hls @ 0x5651155e1500] Opening '/data/transcodes/d0152ffcdfe7674bc01b2e1ed66c13c222.ts' for writing
[hls @ 0x5651155e1500] Opening '/data/transcodes/d0152ffcdfe7674bc01b2e1ed66c13c223.ts' for writing
[hls @ 0x5651155e1500] Opening '/data/transcodes/d0152ffcdfe7674bc01b2e1ed66c13c224.ts' for writing
frame= 4317 fps=1078 q=-1.0 size=N/A time=00:02:36.75 bitrate=N/A speed=39.2x    
[hls @ 0x5651155e1500] Opening '/data/transcodes/d0152ffcdfe7674bc01b2e1ed66c13c225.ts' for writing
[hls @ 0x5651155e1500] Opening '/data/transcodes/d0152ffcdfe7674bc01b2e1ed66c13c226.ts' for writing
[hls @ 0x5651155e1500] Opening '/data/transcodes/d0152ffcdfe7674bc01b2e1ed66c13c227.ts' for writing
[hls @ 0x5651155e1500] Opening '/data/transcodes/d0152ffcdfe7674bc01b2e1ed66c13c228.ts' for writing
[hls @ 0x5651155e1500] Opening '/data/transcodes/d0152ffcdfe7674bc01b2e1ed66c13c229.ts' for writing
[hls @ 0x5651155e1500] Opening '/data/transcodes/d0152ffcdfe7674bc01b2e1ed66c13c230.ts' for writing
[hls @ 0x5651155e1500] Opening '/data/transcodes/d0152ffcdfe7674bc01b2e1ed66c13c231.ts' for writing
[hls @ 0x5651155e1500] Opening '/data/transcodes/d0152ffcdfe7674bc01b2e1ed66c13c232.ts' for writing
frame= 4895 fps=1087 q=-1.0 size=N/A time=00:03:00.77 bitrate=N/A speed=40.1x    
[hls @ 0x5651155e1500] Opening '/data/transcodes/d0152ffcdfe7674bc01b2e1ed66c13c233.ts' for writing
[hls @ 0x5651155e1500] Opening '/data/transcodes/d0152ffcdfe7674bc01b2e1ed66c13c234.ts' for writing
[hls @ 0x5651155e1500] Opening '/data/transcodes/d0152ffcdfe7674bc01b2e1ed66c13c235.ts' for writing
[hls @ 0x5651155e1500] Opening '/data/transcodes/d0152ffcdfe7674bc01b2e1ed66c13c236.ts' for writing
frame= 5449 fps=1089 q=-1.0 size=N/A time=00:03:23.79 bitrate=N/A speed=40.7x    
[hls @ 0x5651155e1500] Opening '/data/transcodes/d0152ffcdfe7674bc01b2e1ed66c13c237.ts' for writing
[hls @ 0x5651155e1500] Opening '/data/transcodes/d0152ffcdfe7674bc01b2e1ed66c13c238.ts' for writing
[hls @ 0x5651155e1500] Opening '/data/transcodes/d0152ffcdfe7674bc01b2e1ed66c13c239.ts' for writing
frame= 5993 fps=1089 q=-1.0 size=N/A time=00:03:46.60 bitrate=N/A speed=41.2x    
[hls @ 0x5651155e1500] Opening '/data/transcodes/d0152ffcdfe7674bc01b2e1ed66c13c240.ts' for writing
[hls @ 0x5651155e1500] Opening '/data/transcodes/d0152ffcdfe7674bc01b2e1ed66c13c241.ts' for writing
[hls @ 0x5651155e1500] Opening '/data/transcodes/d0152ffcdfe7674bc01b2e1ed66c13c242.ts' for writing
frame= 6571 fps=1094 q=-1.0 size=N/A time=00:04:10.85 bitrate=N/A speed=41.8x    
[hls @ 0x5651155e1500] Opening '/data/transcodes/d0152ffcdfe7674bc01b2e1ed66c13c243.ts' for writing
[hls @ 0x5651155e1500] Opening '/data/transcodes/d0152ffcdfe7674bc01b2e1ed66c13c244.ts' for writing
[hls @ 0x5651155e1500] Opening '/data/transcodes/d0152ffcdfe7674bc01b2e1ed66c13c245.ts' for writing
[hls @ 0x5651155e1500] Opening '/data/transcodes/d0152ffcdfe7674bc01b2e1ed66c13c246.ts' for writing
[hls @ 0x5651155e1500] Opening '/data/transcodes/d0152ffcdfe7674bc01b2e1ed66c13c247.ts' for writing
frame= 7185 fps=1105 q=-1.0 size=N/A time=00:04:36.43 bitrate=N/A speed=42.5x    
[hls @ 0x5651155e1500] Opening '/data/transcodes/d0152ffcdfe7674bc01b2e1ed66c13c248.ts' for writing
[hls @ 0x5651155e1500] Opening '/data/transcodes/d0152ffcdfe7674bc01b2e1ed66c13c249.ts' for writing
[hls @ 0x5651155e1500] Opening '/data/transcodes/d0152ffcdfe7674bc01b2e1ed66c13c250.ts' for writing
[hls @ 0x5651155e1500] Opening '/data/transcodes/d0152ffcdfe7674bc01b2e1ed66c13c251.ts' for writing
[hls @ 0x5651155e1500] Opening '/data/transcodes/d0152ffcdfe7674bc01b2e1ed66c13c252.ts' for writing
frame= 7814 fps=1116 q=-1.0 size=N/A time=00:05:02.54 bitrate=N/A speed=43.2x    
[hls @ 0x5651155e1500] Opening '/data/transcodes/d0152ffcdfe7674bc01b2e1ed66c13c253.ts' for writing
[hls @ 0x5651155e1500] Opening '/data/transcodes/d0152ffcdfe7674bc01b2e1ed66c13c254.ts' for writing
[hls @ 0x5651155e1500] Opening '/data/transcodes/d0152ffcdfe7674bc01b2e1ed66c13c255.ts' for writing
[hls @ 0x5651155e1500] Opening '/data/transcodes/d0152ffcdfe7674bc01b2e1ed66c13c256.ts' for writing
frame= 8420 fps=1122 q=-1.0 size=N/A time=00:05:27.78 bitrate=N/A speed=43.7x    
[hls @ 0x5651155e1500] Opening '/data/transcodes/d0152ffcdfe7674bc01b2e1ed66c13c257.ts' for writing
[hls @ 0x5651155e1500] Opening '/data/transcodes/d0152ffcdfe7674bc01b2e1ed66c13c258.ts' for writing
[hls @ 0x5651155e1500] Opening '/data/transcodes/d0152ffcdfe7674bc01b2e1ed66c13c259.ts' for writing
frame= 9016 fps=1126 q=-1.0 size=N/A time=00:05:52.66 bitrate=N/A speed=44.1x    
[hls @ 0x5651155e1500] Opening '/data/transcodes/d0152ffcdfe7674bc01b2e1ed66c13c260.ts' for writing
[hls @ 0x5651155e1500] Opening '/data/transcodes/d0152ffcdfe7674bc01b2e1ed66c13c261.ts' for writing
[hls @ 0x5651155e1500] Opening '/data/transcodes/d0152ffcdfe7674bc01b2e1ed66c13c262.ts' for writing
[hls @ 0x5651155e1500] Opening '/data/transcodes/d0152ffcdfe7674bc01b2e1ed66c13c263.ts' for writing
frame= 9566 fps=1125 q=-1.0 size=N/A time=00:06:15.50 bitrate=N/A speed=44.2x    
[hls @ 0x5651155e1500] Opening '/data/transcodes/d0152ffcdfe7674bc01b2e1ed66c13c264.ts' for writing
[hls @ 0x5651155e1500] Opening '/data/transcodes/d0152ffcdfe7674bc01b2e1ed66c13c265.ts' for writing
[hls @ 0x5651155e1500] Opening '/data/transcodes/d0152ffcdfe7674bc01b2e1ed66c13c266.ts' for writing
[hls @ 0x5651155e1500] Opening '/data/transcodes/d0152ffcdfe7674bc01b2e1ed66c13c267.ts' for writing
[hls @ 0x5651155e1500] Opening '/data/transcodes/d0152ffcdfe7674bc01b2e1ed66c13c268.ts' for writing
[hls @ 0x5651155e1500] Opening '/data/transcodes/d0152ffcdfe7674bc01b2e1ed66c13c269.ts' for writing
frame=10117 fps=1124 q=-1.0 size=N/A time=00:06:38.50 bitrate=N/A speed=44.3x    
[hls @ 0x5651155e1500] Opening '/data/transcodes/d0152ffcdfe7674bc01b2e1ed66c13c270.ts' for writing
[hls @ 0x5651155e1500] Opening '/data/transcodes/d0152ffcdfe7674bc01b2e1ed66c13c271.ts' for writing
frame=10682 fps=1124 q=-1.0 size=N/A time=00:07:02.20 bitrate=N/A speed=44.4x    
[hls @ 0x5651155e1500] Opening '/data/transcodes/d0152ffcdfe7674bc01b2e1ed66c13c272.ts' for writing
[hls @ 0x5651155e1500] Opening '/data/transcodes/d0152ffcdfe7674bc01b2e1ed66c13c273.ts' for writing
[hls @ 0x5651155e1500] Opening '/data/transcodes/d0152ffcdfe7674bc01b2e1ed66c13c274.ts' for writing
[hls @ 0x5651155e1500] Opening '/data/transcodes/d0152ffcdfe7674bc01b2e1ed66c13c275.ts' for writing
[hls @ 0x5651155e1500] Opening '/data/transcodes/d0152ffcdfe7674bc01b2e1ed66c13c276.ts' for writing
frame=11249 fps=1124 q=-1.0 size=N/A time=00:07:25.76 bitrate=N/A speed=44.6x    
[hls @ 0x5651155e1500] Opening '/data/transcodes/d0152ffcdfe7674bc01b2e1ed66c13c277.ts' for writing
[hls @ 0x5651155e1500] Opening '/data/transcodes/d0152ffcdfe7674bc01b2e1ed66c13c278.ts' for writing
[hls @ 0x5651155e1500] Opening '/data/transcodes/d0152ffcdfe7674bc01b2e1ed66c13c279.ts' for writing
[hls @ 0x5651155e1500] Opening '/data/transcodes/d0152ffcdfe7674bc01b2e1ed66c13c280.ts' for writing
frame=11863 fps=1129 q=-1.0 size=N/A time=00:07:51.25 bitrate=N/A speed=44.9x    
[hls @ 0x5651155e1500] Opening '/data/transcodes/d0152ffcdfe7674bc01b2e1ed66c13c281.ts' for writing
[hls @ 0x5651155e1500] Opening '/data/transcodes/d0152ffcdfe7674bc01b2e1ed66c13c282.ts' for writing
[hls @ 0x5651155e1500] Opening '/data/transcodes/d0152ffcdfe7674bc01b2e1ed66c13c283.ts' for writing
frame=12466 fps=1133 q=-1.0 size=N/A time=00:08:16.76 bitrate=N/A speed=45.1x    
[hls @ 0x5651155e1500] Opening '/data/transcodes/d0152ffcdfe7674bc01b2e1ed66c13c284.ts' for writing
[hls @ 0x5651155e1500] Opening '/data/transcodes/d0152ffcdfe7674bc01b2e1ed66c13c285.ts' for writing
[hls @ 0x5651155e1500] Opening '/data/transcodes/d0152ffcdfe7674bc01b2e1ed66c13c286.ts' for writing
[hls @ 0x5651155e1500] Opening '/data/transcodes/d0152ffcdfe7674bc01b2e1ed66c13c287.ts' for writing
frame=13003 fps=1130 q=-1.0 size=N/A time=00:08:38.84 bitrate=N/A speed=45.1x    
[hls @ 0x5651155e1500] Opening '/data/transcodes/d0152ffcdfe7674bc01b2e1ed66c13c288.ts' for writing
[hls @ 0x5651155e1500] Opening '/data/transcodes/d0152ffcdfe7674bc01b2e1ed66c13c289.ts' for writing
[hls @ 0x5651155e1500] Opening '/data/transcodes/d0152ffcdfe7674bc01b2e1ed66c13c290.ts' for writing
[hls @ 0x5651155e1500] Opening '/data/transcodes/d0152ffcdfe7674bc01b2e1ed66c13c291.ts' for writing
[hls @ 0x5651155e1500] Opening '/data/transcodes/d0152ffcdfe7674bc01b2e1ed66c13c292.ts' for writing
frame=13557 fps=1129 q=-1.0 size=N/A time=00:09:02.08 bitrate=N/A speed=45.2x    
[hls @ 0x5651155e1500] Opening '/data/transcodes/d0152ffcdfe7674bc01b2e1ed66c13c293.ts' for writing
[hls @ 0x5651155e1500] Opening '/data/transcodes/d0152ffcdfe7674bc01b2e1ed66c13c294.ts' for writing
[hls @ 0x5651155e1500] Opening '/data/transcodes/d0152ffcdfe7674bc01b2e1ed66c13c295.ts' for writing
[hls @ 0x5651155e1500] Opening '/data/transcodes/d0152ffcdfe7674bc01b2e1ed66c13c296.ts' for writing
[hls @ 0x5651155e1500] Opening '/data/transcodes/d0152ffcdfe7674bc01b2e1ed66c13c297.ts' for writing
frame=14106 fps=1128 q=-1.0 size=N/A time=00:09:24.94 bitrate=N/A speed=45.2x    
[hls @ 0x5651155e1500] Opening '/data/transcodes/d0152ffcdfe7674bc01b2e1ed66c13c298.ts' for writing
[hls @ 0x5651155e1500] Opening '/data/transcodes/d0152ffcdfe7674bc01b2e1ed66c13c299.ts' for writing
frame=14650 fps=1126 q=-1.0 size=N/A time=00:09:47.79 bitrate=N/A speed=45.2x    
[hls @ 0x5651155e1500] Opening '/data/transcodes/d0152ffcdfe7674bc01b2e1ed66c13c2100.ts' for writing
[hls @ 0x5651155e1500] Opening '/data/transcodes/d0152ffcdfe7674bc01b2e1ed66c13c2101.ts' for writing
[hls @ 0x5651155e1500] Opening '/data/transcodes/d0152ffcdfe7674bc01b2e1ed66c13c2102.ts' for writing
[hls @ 0x5651155e1500] Opening '/data/transcodes/d0152ffcdfe7674bc01b2e1ed66c13c2103.ts' for writing
frame=15201 fps=1125 q=-1.0 size=N/A time=00:10:10.60 bitrate=N/A speed=45.2x    
[hls @ 0x5651155e1500] Opening '/data/transcodes/d0152ffcdfe7674bc01b2e1ed66c13c2104.ts' for writing
[hls @ 0x5651155e1500] Opening '/data/transcodes/d0152ffcdfe7674bc01b2e1ed66c13c2105.ts' for writing
[hls @ 0x5651155e1500] Opening '/data/transcodes/d0152ffcdfe7674bc01b2e1ed66c13c2106.ts' for writing
[hls @ 0x5651155e1500] Opening '/data/transcodes/d0152ffcdfe7674bc01b2e1ed66c13c2107.ts' for writing
[hls @ 0x5651155e1500] Opening '/data/transcodes/d0152ffcdfe7674bc01b2e1ed66c13c2108.ts' for writing
frame=15797 fps=1128 q=-1.0 size=N/A time=00:10:35.56 bitrate=N/A speed=45.4x    
[hls @ 0x5651155e1500] Opening '/data/transcodes/d0152ffcdfe7674bc01b2e1ed66c13c2109.ts' for writing
[hls @ 0x5651155e1500] Opening '/data/transcodes/d0152ffcdfe7674bc01b2e1ed66c13c2110.ts' for writing
[hls @ 0x5651155e1500] Opening '/data/transcodes/d0152ffcdfe7674bc01b2e1ed66c13c2111.ts' for writing
frame=16384 fps=1129 q=-1.0 size=N/A time=00:10:59.94 bitrate=N/A speed=45.5x    
[hls @ 0x5651155e1500] Opening '/data/transcodes/d0152ffcdfe7674bc01b2e1ed66c13c2112.ts' for writing
[hls @ 0x5651155e1500] Opening '/data/transcodes/d0152ffcdfe7674bc01b2e1ed66c13c2113.ts' for writing
[hls @ 0x5651155e1500] Opening '/data/transcodes/d0152ffcdfe7674bc01b2e1ed66c13c2114.ts' for writing
[hls @ 0x5651155e1500] Opening '/data/transcodes/d0152ffcdfe7674bc01b2e1ed66c13c2115.ts' for writing
[hls @ 0x5651155e1500] Opening '/data/transcodes/d0152ffcdfe7674bc01b2e1ed66c13c2116.ts' for writing
frame=16968 fps=1131 q=-1.0 size=N/A time=00:11:24.28 bitrate=N/A speed=45.6x    
[hls @ 0x5651155e1500] Opening '/data/transcodes/d0152ffcdfe7674bc01b2e1ed66c13c2117.ts' for writing
[hls @ 0x5651155e1500] Opening '/data/transcodes/d0152ffcdfe7674bc01b2e1ed66c13c2118.ts' for writing
[hls @ 0x5651155e1500] Opening '/data/transcodes/d0152ffcdfe7674bc01b2e1ed66c13c2119.ts' for writing
frame=17590 fps=1134 q=-1.0 size=N/A time=00:11:50.14 bitrate=N/A speed=45.8x    
[hls @ 0x5651155e1500] Opening '/data/transcodes/d0152ffcdfe7674bc01b2e1ed66c13c2120.ts' for writing
[hls @ 0x5651155e1500] Opening '/data/transcodes/d0152ffcdfe7674bc01b2e1ed66c13c2121.ts' for writing
[hls @ 0x5651155e1500] Opening '/data/transcodes/d0152ffcdfe7674bc01b2e1ed66c13c2122.ts' for writing
[hls @ 0x5651155e1500] Opening '/data/transcodes/d0152ffcdfe7674bc01b2e1ed66c13c2123.ts' for writing
[hls @ 0x5651155e1500] Opening '/data/transcodes/d0152ffcdfe7674bc01b2e1ed66c13c2124.ts' for writing
frame=18204 fps=1137 q=-1.0 size=N/A time=00:12:15.89 bitrate=N/A speed=  46x    
[hls @ 0x5651155e1500] Opening '/data/transcodes/d0152ffcdfe7674bc01b2e1ed66c13c2125.ts' for writing
[hls @ 0x5651155e1500] Opening '/data/transcodes/d0152ffcdfe7674bc01b2e1ed66c13c2126.ts' for writing
[hls @ 0x5651155e1500] Opening '/data/transcodes/d0152ffcdfe7674bc01b2e1ed66c13c2127.ts' for writing
frame=18792 fps=1138 q=-1.0 size=N/A time=00:12:40.40 bitrate=N/A speed=46.1x    
[hls @ 0x5651155e1500] Opening '/data/transcodes/d0152ffcdfe7674bc01b2e1ed66c13c2128.ts' for writing
[hls @ 0x5651155e1500] Opening '/data/transcodes/d0152ffcdfe7674bc01b2e1ed66c13c2129.ts' for writing
[hls @ 0x5651155e1500] Opening '/data/transcodes/d0152ffcdfe7674bc01b2e1ed66c13c2130.ts' for writing
[hls @ 0x5651155e1500] Opening '/data/transcodes/d0152ffcdfe7674bc01b2e1ed66c13c2131.ts' for writing
[hls @ 0x5651155e1500] Opening '/data/transcodes/d0152ffcdfe7674bc01b2e1ed66c13c2132.ts' for writing
frame=19397 fps=1140 q=-1.0 size=N/A time=00:13:05.66 bitrate=N/A speed=46.2x    
[hls @ 0x5651155e1500] Opening '/data/transcodes/d0152ffcdfe7674bc01b2e1ed66c13c2133.ts' for writing
[hls @ 0x5651155e1500] Opening '/data/transcodes/d0152ffcdfe7674bc01b2e1ed66c13c2134.ts' for writing
[hls @ 0x5651155e1500] Opening '/data/transcodes/d0152ffcdfe7674bc01b2e1ed66c13c2135.ts' for writing
frame=20007 fps=1143 q=-1.0 size=N/A time=00:13:31.07 bitrate=N/A speed=46.3x    
[hls @ 0x5651155e1500] Opening '/data/transcodes/d0152ffcdfe7674bc01b2e1ed66c13c2136.ts' for writing
[hls @ 0x5651155e1500] Opening '/data/transcodes/d0152ffcdfe7674bc01b2e1ed66c13c2137.ts' for writing
[hls @ 0x5651155e1500] Opening '/data/transcodes/d0152ffcdfe7674bc01b2e1ed66c13c2138.ts' for writing
[hls @ 0x5651155e1500] Opening '/data/transcodes/d0152ffcdfe7674bc01b2e1ed66c13c2139.ts' for writing
[hls @ 0x5651155e1500] Opening '/data/transcodes/d0152ffcdfe7674bc01b2e1ed66c13c2140.ts' for writing
frame=20598 fps=1144 q=-1.0 size=N/A time=00:13:55.77 bitrate=N/A speed=46.4x    
[hls @ 0x5651155e1500] Opening '/data/transcodes/d0152ffcdfe7674bc01b2e1ed66c13c2141.ts' for writing
[hls @ 0x5651155e1500] Opening '/data/transcodes/d0152ffcdfe7674bc01b2e1ed66c13c2142.ts' for writing
[hls @ 0x5651155e1500] Opening '/data/transcodes/d0152ffcdfe7674bc01b2e1ed66c13c2143.ts' for writing
frame=21168 fps=1144 q=-1.0 size=N/A time=00:14:19.47 bitrate=N/A speed=46.4x    
[hls @ 0x5651155e1500] Opening '/data/transcodes/d0152ffcdfe7674bc01b2e1ed66c13c2144.ts' for writing
[hls @ 0x5651155e1500] Opening '/data/transcodes/d0152ffcdfe7674bc01b2e1ed66c13c2145.ts' for writing
[hls @ 0x5651155e1500] Opening '/data/transcodes/d0152ffcdfe7674bc01b2e1ed66c13c2146.ts' for writing
[hls @ 0x5651155e1500] Opening '/data/transcodes/d0152ffcdfe7674bc01b2e1ed66c13c2147.ts' for writing
frame=21782 fps=1146 q=-1.0 size=N/A time=00:14:45.03 bitrate=N/A speed=46.6x    
[hls @ 0x5651155e1500] Opening '/data/transcodes/d0152ffcdfe7674bc01b2e1ed66c13c2148.ts' for writing
[hls @ 0x5651155e1500] Opening '/data/transcodes/d0152ffcdfe7674bc01b2e1ed66c13c2149.ts' for writing
[hls @ 0x5651155e1500] Opening '/data/transcodes/d0152ffcdfe7674bc01b2e1ed66c13c2150.ts' for writing
[hls @ 0x5651155e1500] Opening '/data/transcodes/d0152ffcdfe7674bc01b2e1ed66c13c2151.ts' for writing
[hls @ 0x5651155e1500] Opening '/data/transcodes/d0152ffcdfe7674bc01b2e1ed66c13c2152.ts' for writing
frame=22399 fps=1148 q=-1.0 size=N/A time=00:15:10.84 bitrate=N/A speed=46.7x    
[hls @ 0x5651155e1500] Opening '/data/transcodes/d0152ffcdfe7674bc01b2e1ed66c13c2153.ts' for writing
[hls @ 0x5651155e1500] Opening '/data/transcodes/d0152ffcdfe7674bc01b2e1ed66c13c2154.ts' for writing
[hls @ 0x5651155e1500] Opening '/data/transcodes/d0152ffcdfe7674bc01b2e1ed66c13c2155.ts' for writing
[hls @ 0x5651155e1500] Opening '/data/transcodes/d0152ffcdfe7674bc01b2e1ed66c13c2156.ts' for writing
[hls @ 0x5651155e1500] Opening '/data/transcodes/d0152ffcdfe7674bc01b2e1ed66c13c2157.ts' for writing
frame=22971 fps=1148 q=-1.0 size=N/A time=00:15:34.78 bitrate=N/A speed=46.7x    
[hls @ 0x5651155e1500] Opening '/data/transcodes/d0152ffcdfe7674bc01b2e1ed66c13c2158.ts' for writing
[hls @ 0x5651155e1500] Opening '/data/transcodes/d0152ffcdfe7674bc01b2e1ed66c13c2159.ts' for writing
[hls @ 0x5651155e1500] Opening '/data/transcodes/d0152ffcdfe7674bc01b2e1ed66c13c2160.ts' for writing
[hls @ 0x5651155e1500] Opening '/data/transcodes/d0152ffcdfe7674bc01b2e1ed66c13c2161.ts' for writing
[hls @ 0x5651155e1500] Opening '/data/transcodes/d0152ffcdfe7674bc01b2e1ed66c13c2162.ts' for writing
frame=23527 fps=1147 q=-1.0 size=N/A time=00:15:57.90 bitrate=N/A speed=46.7x    
[hls @ 0x5651155e1500] Opening '/data/transcodes/d0152ffcdfe7674bc01b2e1ed66c13c2163.ts' for writing
[hls @ 0x5651155e1500] Opening '/data/transcodes/d0152ffcdfe7674bc01b2e1ed66c13c2164.ts' for writing
[hls @ 0x5651155e1500] Opening '/data/transcodes/d0152ffcdfe7674bc01b2e1ed66c13c2165.ts' for writing
frame=24103 fps=1147 q=-1.0 size=N/A time=00:16:21.90 bitrate=N/A speed=46.7x    
[hls @ 0x5651155e1500] Opening '/data/transcodes/d0152ffcdfe7674bc01b2e1ed66c13c2166.ts' for writing
[hls @ 0x5651155e1500] Opening '/data/transcodes/d0152ffcdfe7674bc01b2e1ed66c13c2167.ts' for writing
[hls @ 0x5651155e1500] Opening '/data/transcodes/d0152ffcdfe7674bc01b2e1ed66c13c2168.ts' for writing
frame=24642 fps=1146 q=-1.0 size=N/A time=00:16:44.41 bitrate=N/A speed=46.7x    
[hls @ 0x5651155e1500] Opening '/data/transcodes/d0152ffcdfe7674bc01b2e1ed66c13c2169.ts' for writing
[hls @ 0x5651155e1500] Opening '/data/transcodes/d0152ffcdfe7674bc01b2e1ed66c13c2170.ts' for writing
[hls @ 0x5651155e1500] Opening '/data/transcodes/d0152ffcdfe7674bc01b2e1ed66c13c2171.ts' for writing
[hls @ 0x5651155e1500] Opening '/data/transcodes/d0152ffcdfe7674bc01b2e1ed66c13c2172.ts' for writing
[hls @ 0x5651155e1500] Opening '/data/transcodes/d0152ffcdfe7674bc01b2e1ed66c13c2173.ts' for writing
frame=25215 fps=1146 q=-1.0 size=N/A time=00:17:08.35 bitrate=N/A speed=46.7x    
[hls @ 0x5651155e1500] Opening '/data/transcodes/d0152ffcdfe7674bc01b2e1ed66c13c2174.ts' for writing
[hls @ 0x5651155e1500] Opening '/data/transcodes/d0152ffcdfe7674bc01b2e1ed66c13c2175.ts' for writing
[hls @ 0x5651155e1500] Opening '/data/transcodes/d0152ffcdfe7674bc01b2e1ed66c13c2176.ts' for writing
[hls @ 0x5651155e1500] Opening '/data/transcodes/d0152ffcdfe7674bc01b2e1ed66c13c2177.ts' for writing
frame=25795 fps=1146 q=-1.0 size=N/A time=00:17:32.54 bitrate=N/A speed=46.8x    
[hls @ 0x5651155e1500] Opening '/data/transcodes/d0152ffcdfe7674bc01b2e1ed66c13c2178.ts' for writing
[hls @ 0x5651155e1500] Opening '/data/transcodes/d0152ffcdfe7674bc01b2e1ed66c13c2179.ts' for writing
[hls @ 0x5651155e1500] Opening '/data/transcodes/d0152ffcdfe7674bc01b2e1ed66c13c2180.ts' for writing
frame=26327 fps=1144 q=-1.0 size=N/A time=00:17:54.60 bitrate=N/A speed=46.7x    
[hls @ 0x5651155e1500] Opening '/data/transcodes/d0152ffcdfe7674bc01b2e1ed66c13c2181.ts' for writing
[hls @ 0x5651155e1500] Opening '/data/transcodes/d0152ffcdfe7674bc01b2e1ed66c13c2182.ts' for writing
[hls @ 0x5651155e1500] Opening '/data/transcodes/d0152ffcdfe7674bc01b2e1ed66c13c2183.ts' for writing
frame=26881 fps=1143 q=-1.0 size=N/A time=00:18:17.74 bitrate=N/A speed=46.7x    
[hls @ 0x5651155e1500] Opening '/data/transcodes/d0152ffcdfe7674bc01b2e1ed66c13c2184.ts' for writing
[hls @ 0x5651155e1500] Opening '/data/transcodes/d0152ffcdfe7674bc01b2e1ed66c13c2185.ts' for writing
[hls @ 0x5651155e1500] Opening '/data/transcodes/d0152ffcdfe7674bc01b2e1ed66c13c2186.ts' for writing
[hls @ 0x5651155e1500] Opening '/data/transcodes/d0152ffcdfe7674bc01b2e1ed66c13c2187.ts' for writing
[hls @ 0x5651155e1500] Opening '/data/transcodes/d0152ffcdfe7674bc01b2e1ed66c13c2188.ts' for writing
frame=27500 fps=1145 q=-1.0 size=N/A time=00:18:43.79 bitrate=N/A speed=46.8x    
[hls @ 0x5651155e1500] Opening '/data/transcodes/d0152ffcdfe7674bc01b2e1ed66c13c2189.ts' for writing
[hls @ 0x5651155e1500] Opening '/data/transcodes/d0152ffcdfe7674bc01b2e1ed66c13c2190.ts' for writing
frame=28053 fps=1145 q=-1.0 size=N/A time=00:19:06.81 bitrate=N/A speed=46.8x    
[hls @ 0x5651155e1500] Opening '/data/transcodes/d0152ffcdfe7674bc01b2e1ed66c13c2191.ts' for writing
[hls @ 0x5651155e1500] Opening '/data/transcodes/d0152ffcdfe7674bc01b2e1ed66c13c2192.ts' for writing
[hls @ 0x5651155e1500] Opening '/data/transcodes/d0152ffcdfe7674bc01b2e1ed66c13c2193.ts' for writing
[hls @ 0x5651155e1500] Opening '/data/transcodes/d0152ffcdfe7674bc01b2e1ed66c13c2194.ts' for writing
[hls @ 0x5651155e1500] Opening '/data/transcodes/d0152ffcdfe7674bc01b2e1ed66c13c2195.ts' for writing
frame=28566 fps=1142 q=-1.0 size=N/A time=00:19:28.14 bitrate=N/A speed=46.7x    
[hls @ 0x5651155e1500] Opening '/data/transcodes/d0152ffcdfe7674bc01b2e1ed66c13c2196.ts' for writing
[hls @ 0x5651155e1500] Opening '/data/transcodes/d0152ffcdfe7674bc01b2e1ed66c13c2197.ts' for writing
frame=29166 fps=1143 q=-1.0 size=N/A time=00:19:52.93 bitrate=N/A speed=46.8x    
[hls @ 0x5651155e1500] Opening '/data/transcodes/d0152ffcdfe7674bc01b2e1ed66c13c2198.ts' for writing
[hls @ 0x5651155e1500] Opening '/data/transcodes/d0152ffcdfe7674bc01b2e1ed66c13c2199.ts' for writing
[hls @ 0x5651155e1500] Opening '/data/transcodes/d0152ffcdfe7674bc01b2e1ed66c13c2200.ts' for writing
frame=29790 fps=1145 q=-1.0 size=N/A time=00:20:19.15 bitrate=N/A speed=46.9x    
[hls @ 0x5651155e1500] Opening '/data/transcodes/d0152ffcdfe7674bc01b2e1ed66c13c2201.ts' for writing
[hls @ 0x5651155e1500] Opening '/data/transcodes/d0152ffcdfe7674bc01b2e1ed66c13c2202.ts' for writing
[hls @ 0x5651155e1500] Opening '/data/transcodes/d0152ffcdfe7674bc01b2e1ed66c13c2203.ts' for writing
[hls @ 0x5651155e1500] Opening '/data/transcodes/d0152ffcdfe7674bc01b2e1ed66c13c2204.ts' for writing
frame=30370 fps=1146 q=-1.0 size=N/A time=00:20:43.20 bitrate=N/A speed=46.9x    
[hls @ 0x5651155e1500] Opening '/data/transcodes/d0152ffcdfe7674bc01b2e1ed66c13c2205.ts' for writing
[hls @ 0x5651155e1500] Opening '/data/transcodes/d0152ffcdfe7674bc01b2e1ed66c13c2206.ts' for writing
[hls @ 0x5651155e1500] Opening '/data/transcodes/d0152ffcdfe7674bc01b2e1ed66c13c2207.ts' for writing
[hls @ 0x5651155e1500] Opening '/data/transcodes/d0152ffcdfe7674bc01b2e1ed66c13c2208.ts' for writing
frame=30916 fps=1145 q=-1.0 size=N/A time=00:21:05.96 bitrate=N/A speed=46.9x    
[hls @ 0x5651155e1500] Opening '/data/transcodes/d0152ffcdfe7674bc01b2e1ed66c13c2209.ts' for writing
[hls @ 0x5651155e1500] Opening '/data/transcodes/d0152ffcdfe7674bc01b2e1ed66c13c2210.ts' for writing
[hls @ 0x5651155e1500] Opening '/data/transcodes/d0152ffcdfe7674bc01b2e1ed66c13c2211.ts' for writing
[hls @ 0x5651155e1500] Opening '/data/transcodes/d0152ffcdfe7674bc01b2e1ed66c13c2212.ts' for writing
frame=31514 fps=1145 q=-1.0 size=N/A time=00:21:30.88 bitrate=N/A speed=46.9x    
[hls @ 0x5651155e1500] Opening '/data/transcodes/d0152ffcdfe7674bc01b2e1ed66c13c2213.ts' for writing
[hls @ 0x5651155e1500] Opening '/data/transcodes/d0152ffcdfe7674bc01b2e1ed66c13c2214.ts' for writing
frame=32077 fps=1145 q=-1.0 size=N/A time=00:21:54.60 bitrate=N/A speed=46.9x    
[hls @ 0x5651155e1500] Opening '/data/transcodes/d0152ffcdfe7674bc01b2e1ed66c13c2215.ts' for writing
[hls @ 0x5651155e1500] Opening '/data/transcodes/d0152ffcdfe7674bc01b2e1ed66c13c2216.ts' for writing
[hls @ 0x5651155e1500] Opening '/data/transcodes/d0152ffcdfe7674bc01b2e1ed66c13c2217.ts' for writing
frame=32656 fps=1145 q=-1.0 size=N/A time=00:22:18.64 bitrate=N/A speed=46.9x    
[hls @ 0x5651155e1500] Opening '/data/transcodes/d0152ffcdfe7674bc01b2e1ed66c13c2218.ts' for writing
[hls @ 0x5651155e1500] Opening '/data/transcodes/d0152ffcdfe7674bc01b2e1ed66c13c2219.ts' for writing
frame=33213 fps=1145 q=-1.0 size=N/A time=00:22:41.83 bitrate=N/A speed=46.9x    
[hls @ 0x5651155e1500] Opening '/data/transcodes/d0152ffcdfe7674bc01b2e1ed66c13c2220.ts' for writing
[hls @ 0x5651155e1500] Opening '/data/transcodes/d0152ffcdfe7674bc01b2e1ed66c13c2221.ts' for writing
[hls @ 0x5651155e1500] Opening '/data/transcodes/d0152ffcdfe7674bc01b2e1ed66c13c2222.ts' for writing
[hls @ 0x5651155e1500] Opening '/data/transcodes/d0152ffcdfe7674bc01b2e1ed66c13c2223.ts' for writing
frame=33777 fps=1144 q=-1.0 size=N/A time=00:23:05.45 bitrate=N/A speed=46.9x    
[hls @ 0x5651155e1500] Opening '/data/transcodes/d0152ffcdfe7674bc01b2e1ed66c13c2224.ts' for writing
frame=33928 fps=1144 q=-1.0 Lsize=N/A time=00:23:12.89 bitrate=N/A speed=  47x    
video:390337kB audio:44265kB subtitle:0kB other streams:0kB global headers:0kB muxing overhead: unknown